<svg xmlns="http://www.w3.org/2000/svg" viewBox="0 0 24 24" width="48" height="48">
  <path fill="#4A90E2" d="M18.5,10a1,1,0,0,0-1,1,3,3,0,0,1-3,3H9.5A3.5,3.5,0,0,1,6,10.5,1,1,0,0,0,5,10a1,1,0,0,0-1,1,5.5,5.5,0,0,0,5,5.5h5a5,5,0,0,0,5-5A1,1,0,0,0,18.5,10Z"/>
  <circle fill="#4A90E2" cx="8" cy="9" r="1"/>
  <circle fill="#4A90E2" cx="16" cy="9" r="1"/>
  <path fill="#4A90E2" d="M12,14a1,1,0,0,0,.92-.62l1-2.5a1,1,0,1,0-1.84-.76L12,12.58l-.08-.02-1-2.5a1,1,0,1,0-1.84,.76l1,2.5A1,1,0,0,0,12,14Z"/>
</svg>